RBDS021runT25_grf
version=1
nRows=15
nColumns=19
inDegrees=no
endheader
time	ground_force_r_vx	ground_force_r_vy	ground_force_r_vz	ground_force_r_px	ground_force_r_py	ground_force_r_pz	ground_force_r_mx	ground_force_r_my	ground_force_r_mz	ground_force_l_vx	ground_force_l_vy	ground_force_l_vz	ground_force_l_px	ground_force_l_py	ground_force_l_pz	ground_force_l_mx	ground_force_l_my	ground_force_l_mz
      7.49900000	      0.00000000	      0.00000000	      0.00000000	      0.00000000	      0.00000000	      0.00000000	      0.00000000	      0.00000000	      0.00000000	    -63.67158700	    733.41860404	     23.15428181	      2.07646281	      0.00000000	      0.91821205	      0.00000000	      6.17203154	     -0.00000000
      7.50000000	      0.00000000	      0.00000000	      0.00000000	      0.00000000	      0.00000000	      0.00000000	      0.00000000	      0.00000000	      0.00000000	    -66.20871570	    753.58961143	     23.36559945	      2.07384509	      0.00000000	      0.91854941	      0.00000000	      6.25533300	     -0.00000000
      7.50100000	      0.00000000	      0.00000000	      0.00000000	      0.00000000	      0.00000000	      0.00000000	      0.00000000	      0.00000000	      0.00000000	    -68.87820312	    773.15305016	     23.49697216	      2.07133861	      0.00000000	      0.91888206	      0.00000000	      6.31318773	     -0.00000000
      7.50200000	      0.00000000	      0.00000000	      0.00000000	      0.00000000	      0.00000000	      0.00000000	      0.00000000	      0.00000000	      0.00000000	    -71.54769054	    792.71648889	     23.62834487	      2.06883213	      0.00000000	      0.91921471	      0.00000000	      6.37104246	     -0.00000000
      7.50300000	      0.00000000	      0.00000000	      0.00000000	      0.00000000	      0.00000000	      0.00000000	      0.00000000	      0.00000000	      0.00000000	    -74.21717797	    812.27992762	     23.75971758	      2.06632565	      0.00000000	      0.91954735	      0.00000000	      6.42889719	     -0.00000000
      7.50400000	      0.00000000	      0.00000000	      0.00000000	      0.00000000	      0.00000000	      0.00000000	      0.00000000	      0.00000000	      0.00000000	    -76.95646424	    831.40133449	     23.85695816	      2.06389250	      0.00000000	      0.91987498	      0.00000000	      6.47182379	     -0.00000000
      7.50500000	      0.00000000	      0.00000000	      0.00000000	      0.00000000	      0.00000000	      0.00000000	      0.00000000	      0.00000000	      0.00000000	    -79.73064995	    850.30172542	     23.93713268	      2.06149601	      0.00000000	      0.92020009	      0.00000000	      6.50728632	     -0.00000000
      7.50600000	      0.00000000	      0.00000000	      0.00000000	      0.00000000	      0.00000000	      0.00000000	      0.00000000	      0.00000000	      0.00000000	    -82.50483566	    869.20211636	     24.01730720	      2.05909953	      0.00000000	      0.92052520	      0.00000000	      6.54274884	     -0.00000000
      7.50700000	      0.00000000	      0.00000000	      0.00000000	      0.00000000	      0.00000000	      0.00000000	      0.00000000	      0.00000000	      0.00000000	    -85.30158241	    887.86502845	     24.09100074	      2.05673837	      0.00000000	      0.92084678	      0.00000000	      6.57209735	     -0.00000000
      7.50800000	      0.00000000	      0.00000000	      0.00000000	      0.00000000	      0.00000000	      0.00000000	      0.00000000	      0.00000000	      0.00000000	    -88.14345125	    906.05298285	     24.15173230	      2.05444789	      0.00000000	      0.92116127	      0.00000000	      6.58921783	     -0.00000000
      7.50900000	      0.00000000	      0.00000000	      0.00000000	      0.00000000	      0.00000000	      0.00000000	      0.00000000	      0.00000000	      0.00000000	    -90.98532008	    924.24093726	     24.21246387	      2.05215741	      0.00000000	      0.92147576	      0.00000000	      6.60633831	     -0.00000000
      7.51000000	      0.00000000	      0.00000000	      0.00000000	      0.00000000	      0.00000000	      0.00000000	      0.00000000	      0.00000000	      0.00000000	    -93.82718891	    942.42889166	     24.27319543	      2.04986692	      0.00000000	      0.92179025	      0.00000000	      6.62345878	     -0.00000000
      7.51100000	      0.00000000	      0.00000000	      0.00000000	      0.00000000	      0.00000000	      0.00000000	      0.00000000	      0.00000000	      0.00000000	    -96.69143864	    959.86259411	     24.34772781	      2.04767590	      0.00000000	      0.92209086	      0.00000000	      6.62705251	     -0.00000000
      7.51200000	      0.00000000	      0.00000000	      0.00000000	      0.00000000	      0.00000000	      0.00000000	      0.00000000	      0.00000000	      0.00000000	    -99.55568837	    977.29629657	     24.42226018	      2.04548488	      0.00000000	      0.92239148	      0.00000000	      6.63064623	     -0.00000000
      7.51300000	      0.00000000	      0.00000000	      0.00000000	      0.00000000	      0.00000000	      0.00000000	      0.00000000	      0.00000000	      0.00000000	   -102.41993810	    994.72999903	     24.49679255	      2.04329386	      0.00000000	      0.92269209	      0.00000000	      6.63423996	     -0.00000000
